<?xml version="1.0" encoding="UTF-8" standalone="no"?>
<!DOCTYPE svg PUBLIC "-//W3C//DTD SVG 1.1//EN" "http://www.w3.org/Graphics/SVG/1.1/DTD/svg11.dtd">
<svg width="100%" height="100%" viewBox="0 0 512 512" version="1.1" xmlns="http://www.w3.org/2000/svg" xmlns:xlink="http://www.w3.org/1999/xlink" xml:space="preserve" xmlns:serif="http://www.serif.com/" style="fill-rule:evenodd;clip-rule:evenodd;stroke-linejoin:round;stroke-miterlimit:2;">
    <g>
        <path d="M91.5,0L511.999,0C514.089,11.288 511.999,11.355 511.999,143.5L511.999,511.999C505.055,514.313 504.836,511.999 420.5,511.999L-0,511.999C-1.328,508.015 -0,507.88 0,459.5L0,0C6.944,-2.315 7.163,0 91.5,0Z" style="fill:rgb(9,135,88);"/>
        <path d="M289.5,334.034C310.313,334.034 320.133,333.687 321.261,334.784C322.097,335.596 331.577,344.811 330.223,346.272C315.699,361.945 313.447,372.524 305.74,366.22C301.436,362.698 282.752,342.151 284.079,352.554C284.476,355.665 305.523,372.465 303.223,375.272C297.559,382.185 274.016,398.904 284.499,398.905C289.47,398.905 309.672,376.331 312.272,378.777C317.73,383.912 318.169,383.038 324.225,387.764C325.848,389.03 315.709,398.904 323.5,398.904C328.311,398.903 327.767,390.317 335.398,394.668C345.126,400.217 343.241,392.492 342.258,391.78C333.653,385.545 341.168,384.286 348.738,376.738C355.449,370.048 355.416,365.687 363.577,370.349C372.431,375.407 372.826,372.303 372.922,371.555C373.655,365.791 358.575,363.265 361.776,359.727C372.44,347.944 376.115,334.154 379.439,334.079C409.663,333.398 411.33,334.099 410.728,336.536C410.657,336.824 399.972,364.837 377.437,385.434C339.607,420.009 323.126,414.767 207.501,415.029C129.37,415.206 97.232,335.189 102.392,334.077C103.082,333.928 115.075,334.171 131.496,333.967C136.291,333.908 139.952,348.036 149.217,358.738C153.069,363.187 130.121,372.48 141.445,373.922C146.768,374.599 151.781,363.822 156.78,369.259C172.758,386.637 175.403,386.681 173.223,389.271C169.763,393.385 165.373,394.639 170.42,396.655C174.955,398.466 175.946,389.548 184.26,395.78C193.577,402.766 191.613,394.162 191.217,393.738C190.507,392.979 183.642,390.18 191.74,384.78C201.3,378.407 201.573,378.105 202.272,378.777C204.133,380.568 231.373,406.787 229.921,395.446C229.79,394.419 229.246,390.174 220.423,386.65C219.361,386.226 206.897,374.669 208.777,372.728C211.726,369.682 234.335,350.196 225.555,349.078C220.333,348.414 205.447,372.756 199.738,367.261C198.019,365.606 178.605,346.919 182.754,342.749C183.488,342.011 191.355,334.104 192.44,334.079C194.881,334.025 226.889,334.034 289.5,334.034Z" style="fill:rgb(254,254,254);"/>
        <path d="M173.5,269.034C183.078,269.695 185.286,272.21 205.256,292.699C208.204,295.724 203.491,295.553 152.496,294.828C135.184,294.582 130.218,293.99 128.005,280.569C124.775,260.985 97.339,274.484 91.209,248.565C87.657,233.543 105.032,229.114 94.074,212.792C93.904,212.54 74.374,192.06 92.938,170.882C105.139,156.963 121.026,157.685 131.172,165.92C142.67,175.251 144.316,175.558 153.478,169.464C159.608,165.386 182.1,161.564 189.996,193.45C194.103,210.034 207.204,198.939 214.317,214.577C227.11,242.698 204.402,249.21 227.331,283.603C232.032,290.654 236.485,294.793 233.647,294.953C217.261,295.88 218.779,285.7 202.74,274.22C197.333,270.349 191.486,261.617 190.669,260.397C179.728,244.06 189.31,212.264 180.783,220.783C177.457,224.105 177.486,249.989 174.932,248.156C171.57,245.741 157.655,228.228 157.079,220.556C156.931,218.587 159.144,188.343 152.739,193.783C146.397,199.169 151.159,225.607 146.702,221.251C132.561,207.431 112.234,183.671 112.097,193.496C111.985,201.502 147.543,231.407 143.443,232.157C142.505,232.329 142.491,231.952 131.542,232.999C125.179,233.608 110.206,241.768 123.496,242.032C128.432,242.13 134.779,238.178 153.45,242.995C157.922,244.149 172.599,258.829 169.443,259.157C142.75,261.932 145.592,269.873 147.421,270.649C149.345,271.466 149.38,269.094 173.5,269.034Z" style="fill:rgb(254,254,254);"/>
        <path d="M322.998,132.066C326.944,131.917 330.751,98.215 341.5,97.501C358.38,96.38 343.111,128.412 341.233,134.517C338.224,144.301 353.24,122.151 363.404,125.75C380.673,131.866 345.996,154.75 337.969,160.943C333.423,164.45 358.648,172.057 344.167,203.343C338.288,216.044 297.966,215.277 297.966,265.5C297.966,280.03 301.192,280.957 293.073,293.139C291.577,295.384 259.723,295.184 259.217,293.63C258.142,290.332 256.986,286.785 263.091,250.447C264.727,240.708 280.776,253.249 284.22,248.215C291.897,236.992 270.766,236.191 267.476,232.52C265.938,230.803 271.992,203.881 273.944,198.613C275.797,193.612 296.893,206.76 302.26,202.216C314.409,191.93 278.287,188.763 279.072,181.478C281.751,156.597 305.259,154.552 308.45,154.274C316.503,153.574 292.174,110.723 308.551,106.721C320.03,103.915 322.893,131.643 322.998,132.066Z" style="fill:rgb(254,254,254);"/>
        <path d="M116.5,325.966C101.785,325.986 79.094,331.022 81.907,310.585C83.542,298.706 109.964,304.092 211.503,302.73C232.049,302.454 396.418,302.902 412.497,302.946C424.079,302.978 427.515,300.346 430.349,311.534C434.855,329.325 407.387,325.965 379.5,325.966L116.5,325.966Z" style="fill:rgb(254,254,254);"/>
        <path d="M230.034,237.5C232.126,224.702 231.912,224.686 238.65,213.577C238.973,213.044 241.926,208.177 241.902,206.496C241.725,193.936 227.471,217.905 225.908,213.396C222.554,203.721 218.52,201.289 216.78,199.26C205.719,186.354 226.665,170.708 223.657,163.415C222.404,160.379 211.339,170.944 210.35,173.423C207.462,180.657 204.614,186.139 204.054,187.215C203.592,188.105 202.266,187.882 197.682,176.423C183.024,139.777 180.92,139.508 177.554,139.079C169.875,138.099 178.333,152.618 178.683,153.423C183.038,163.446 166.367,149.923 152.563,156.626C143.177,161.183 144.65,154.93 143.188,147.556C135.171,107.105 182.662,91.302 202.001,120.847C210.047,133.138 210.869,134.636 225.471,133.181C241.993,131.536 255.1,145.589 252.865,168.536C251.612,181.406 253.328,181.406 261.618,191.411C264.03,194.321 253.999,223.988 247.977,272.555C246.553,284.042 248.766,293.257 243.803,286.245C228.471,264.581 226.84,263.828 230.034,237.5Z" style="fill:rgb(254,254,254);"/>
        <path d="M310.034,270.5C310.042,267.981 310.108,246.992 316.78,239.74C328.768,226.712 336.928,214.124 354.606,223.335C358.366,225.294 351.887,230.079 350.319,233.426C346.474,241.631 359.578,244.471 368.575,240.65C380.47,235.598 378.97,245.11 386.739,252.261C399.136,263.67 399.131,238.925 400.421,238.35C418.331,230.368 432.411,280.324 416.064,294.007C414.245,295.53 320.766,295.58 319.783,294.208C307.109,276.526 310.063,270.808 310.034,270.5Z" style="fill:rgb(254,254,254);"/>
        <path d="M392.966,238.5C392.941,239.218 392.601,248.968 390.703,247.193C378.225,235.529 378.023,231.823 361.55,235.996C346.085,239.914 361.417,229.901 361.92,225.56C362.86,217.442 342.32,212.736 350.336,212.137C367.721,210.838 376.353,222.675 378.195,218.353C387.102,197.457 392.281,202.299 393.34,203.617C396.083,207.03 375.105,222.964 390.499,221.392C397.425,220.685 415.639,231.753 408.653,231.949C397.794,232.255 391.412,227.598 392.966,238.5Z" style="fill:rgb(253,254,253);"/>
        <path d="M164.261,367.739C161.494,364.737 159.136,364.66 161.783,361.738C175.679,346.399 178.774,351.053 179.668,352.397C186.832,363.168 187.323,362.538 196.223,371.727C198.683,374.266 189.284,377.891 182.272,384.223C180.822,385.532 179.262,386.065 164.261,367.739Z" style="fill:white;"/>
        <path d="M327.261,360.261C331.394,355.769 330.217,354.957 334.729,350.778C337.752,347.979 349.198,360.613 350.217,361.738C352.364,364.108 344.319,371.567 332.271,383.222C331.241,384.218 330.411,384.583 316.775,374.236C314.235,372.309 316.767,371.866 327.261,360.261Z" style="fill:white;"/>
        <path d="M162.5,334.034C169.481,334.576 167.63,337.499 172.24,342.711C173.502,344.138 158.709,359.25 154.738,355.261C152.966,353.481 138.323,334.034 144.479,334.026C150.486,334.029 156.493,334.031 162.5,334.034Z" style="fill:white;"/>
        <path d="M349.5,334.034C352.043,334.027 371.424,332.629 369.694,336.575C368.641,338.978 357.642,357.108 355.44,356.709C352.714,356.215 342.75,346.271 341.739,345.262C340.638,344.163 339.414,334.819 349.5,334.034Z" style="fill:white;"/>
        <path d="M177.5,334.034C188.318,335.125 179.093,342.525 177.712,341.24C173.731,337.536 172.058,334.82 177.5,334.034Z" style="fill:white;"/>
        <path d="M334.502,334.031C342.932,335.101 334.137,339.405 332.729,338.223C329.998,335.932 331.055,334.527 334.502,334.031Z" style="fill:white;"/>
    </g>
</svg>
